# xmcd CD database file
#
# Track frame offsets:
#	150
#	47014
#	121304
#	144390
#	194350
#
# Disc length: 2943 seconds
#
# Revision: 0
# Processed by: cddbd v1.5.1PL2 Copyright (c) Steve Scherf et al.
# Submitted via: CDex 1.51
#
DISCID=410b7d05
DTITLE=Root Valdez - The Autumn Sessions EP
DYEAR=2006
DGENRE=Jazz
TTITLE0=Low End Karma
TTITLE1=Tracks
TTITLE2=Mind's Eye
TTITLE3=Know We Don't
TTITLE4=Mind's Eye (G.O.O.N.D.A. Avaaz Rmx)
EXTD=YEAR: 2006
EXTT0=
EXTT1=
EXTT2=
EXTT3=
EXTT4=
PLAYORDER=
